# xmcd
#
# Track frame offsets:
#	150
#	17042
#	38421
#	60904
#	77563
#	93152
#	116689
#	136595
#	152252
#	172794
#	190759
#	206685
#
# Disc length: 3014
#
# Revision: 2
# Processed by: cddbd v1.5.1PL0 Copyright (c) Steve Scherf et al.
# Submitted via: tcd 2.0b
# Normalized: r1:TDELIM( - )
#
DISCID=7b0bc40c
DTITLE=Funkstorung - Viceversa
DYEAR=1900
DGENRE=
TTITLE0=Plaid - Eyen (Funkstorung remiks)
TTITLE1=Funkstorung mit Jay Jay Johanson - I Want Some Fun
TTITLE2=Nils Petter Molvaer - Solid Ether (Funkstorung Miks)
TTITLE3=Guy Called Gerald - Humanity (Funkstorung remiks)
TTITLE4=Beans mit Funkstorung - Salt
TTITLE5=Speedy J - Something For Your Mind (Funkstorung remiks)
TTITLE6=Ike Yard - NCR (Funkstorung remiks)
TTITLE7=The Notwist - Moron (Twisted by Funkstorung)
TTITLE8=Funckarma - Spatial Convolution (morphed by Funkstorung)
TTITLE9=Phillip Boa and the Voodooclub - Rome in the Rain (Funkstorung remiks)
TTITLE10=Tocotronic - Morgen Wird Wie Heute Sein (Funkstorung remiks)
TTITLE11=Jean Michel Jarre - C'est La Vie (Funkstorung remiks)
EXTD=
EXTT0=
EXTT1=
EXTT2=
EXTT3=
EXTT4=
EXTT5=
EXTT6=
EXTT7=
EXTT8=
EXTT9=
EXTT10=
EXTT11=
PLAYORDER=
